Coordinates
version=1
nRows=5
nColumns=40
inDegrees=yes

Units are S.I. units (second, meters, Newtons, ...)
Angles are in degrees.

endheader
time	pelvis_tilt	pelvis_list	pelvis_rotation	pelvis_tx	pelvis_ty	pelvis_tz	hip_flexion_r	hip_adduction_r	hip_rotation_r	knee_angle_r	knee_angle_r_beta	ankle_angle_r	subtalar_angle_r	mtp_angle_r	hip_flexion_l	hip_adduction_l	hip_rotation_l	knee_angle_l	knee_angle_l_beta	ankle_angle_l	subtalar_angle_l	mtp_angle_l	lumbar_extension	lumbar_bending	lumbar_rotation	arm_flex_r	arm_add_r	arm_rot_r	elbow_flex_r	pro_sup_r	wrist_flex_r	wrist_dev_r	arm_flex_l	arm_add_l	arm_rot_l	elbow_flex_l	pro_sup_l	wrist_flex_l	wrist_dev_l
     52.89000000	     -5.16350901	     -5.74835227	      1.85681415	      0.91349520	      0.92693953	      0.48888811	     15.32582750	      4.46131911	    -12.09918148	     17.70934718	     17.70934718	      9.55174608	     -2.85254755	     -3.43474999	     31.67005305	    -10.85452484	      2.86771874	     60.12946057	     60.12946057	     12.75634303	    -19.22478721	     18.59203807	    -10.97202184	      7.01375034	      1.45045473	     15.29970313	    -15.25745507	      0.18183571	     58.49592946	     44.73238871	      0.00000000	      0.00000000	      9.02214464	     -9.04891968	     -0.88849692	     38.99898360	     44.44153077	      0.00000000	      0.00000000
     52.90300000	     -5.31036486	     -5.57562436	      2.13853735	      0.91124357	      0.92748100	      0.48923202	     14.86168404	      4.35284552	    -12.19207629	     17.16726761	     17.16726761	      9.67368489	     -2.80711444	     -3.44977118	     32.87651401	    -10.54811171	      2.95979338	     57.47665760	     57.47665760	     13.05518694	    -19.22273253	     18.51591109	    -11.02803525	      6.60881820	      0.95461321	     17.73196337	    -15.02785867	      0.08716344	     61.26811025	     44.66020789	      0.00000000	      0.00000000	      7.35286676	     -9.02622326	     -0.89591389	     37.70425328	     44.44466093	      0.00000000	      0.00000000
     52.91600000	     -5.48191762	     -5.46056871	      2.41340284	      0.90896956	      0.92782678	      0.48943269	     14.46123794	      4.27443406	    -12.35017364	     16.67653670	     16.67653670	      9.69984123	     -2.70788724	     -3.78329306	     33.87107976	    -10.24957044	      3.07418050	     54.44340523	     54.44340523	     13.00037852	    -19.20472412	     17.70832436	    -11.13861509	      6.40901092	      1.29554298	     18.94287217	    -16.08337534	      0.95154850	     66.93291905	     44.48206734	      0.00000000	      0.00000000	      6.50476415	     -8.51511056	     -1.30238079	     35.39740738	     44.58603627	      0.00000000	      0.00000000
     52.92900000	     -5.62855756	     -5.32592631	      2.67570776	      0.90679571	      0.92817388	      0.48962527	     14.04855028	      4.18921387	    -12.44127474	     16.22130489	     16.22130489	      9.79305564	     -2.67885487	     -3.94165903	     34.59387718	     -9.85662680	      3.23945564	     51.08461004	     51.08461004	     12.88723542	    -19.15939331	     17.18217285	    -11.23148951	      6.13368993	      1.38171256	     20.88515409	    -16.35584277	      0.72792588	     70.66260262	     44.42229029	      0.00000000	      0.00000000	      5.56343221	     -8.20027032	     -1.35544907	     33.11609983	     44.67418406	      0.00000000	      0.00000000
     52.94200000	     -5.77357832	     -5.17179575	      2.89997870	      0.90470104	      0.92841275	      0.48973042	     13.66904225	      4.07645271	    -12.50303134	     15.84403758	     15.84403758	      9.98341621	     -2.65636024	     -3.97482982	     35.13521336	     -9.36920735	      3.48648895	     47.57452328	     47.57452328	     12.86012121	    -19.04044046	     17.12142625	    -11.30813569	      5.84807199	      1.11024390	     23.35156095	    -16.15380192	      0.48681454	     73.28851641	     44.37007290	      0.00000000	      0.00000000	      4.18439278	     -8.11334458	     -1.27061277	     31.73892158	     44.67183143	      0.00000000	      0.00000000
